<svg
width="15"
height="15"
viewBox="0 0 15 15"
fill="none"
xmlns="http://www.w3.org/2000/svg"
>
    <path
        d="M13.6209 1.5H1.37905C0.89553 1.5 0.5 1.87428 0.5 2.33182C0.5 2.78937 0.89553 3.16364 1.37905 3.16364H13.6209C14.1045 3.16364 14.5 2.78937 14.5 2.33182C14.5 1.87428 14.1045 1.5 13.6209 1.5Z"
        fill="#3F53BE"
    />
    <path
        d="M13.6209 6.6786H1.37905C0.89553 6.6786 0.5 7.05288 0.5 7.51042C0.5 7.96797 0.89553 8.34225 1.37905 8.34225H13.6209C14.1045 8.34225 14.5 7.96797 14.5 7.51042C14.5 7.05303 14.1045 6.6786 13.6209 6.6786Z"
        fill="#3F53BE"
    />
    <path
        d="M1.37905 11.8364H13.6209C14.1045 11.8364 14.5 12.2108 14.5 12.6682C14.5 13.1257 14.1045 13.5 13.6209 13.5H1.37905C0.89553 13.5 0.5 13.1257 0.5 12.6682C0.5 12.2107 0.89553 11.8364 1.37905 11.8364Z"
        fill="#3F53BE"
    />
</svg>